<?xml version="1.0" encoding="UTF-8"?>
<svg id="Layer_1" xmlns="http://www.w3.org/2000/svg" version="1.1" viewBox="0 0 301.515152 273.427863">
  <!-- Generator: Adobe Illustrator 30.1.0, SVG Export Plug-In . SVG Version: 2.1.1 Build 136)  -->
  <g>
    <path d="M73.810307,229.620674c.609302.843394-1.514894,4.043681,2.161656,6.6351,2.249014,1.58522,3.927844,4.477926,2.539325,7.243413-.60672,1.208392-2.570356,2.279816-4.144389,2.275709-10.6212-.027717-21.116398.497329-31.799734-.29207-2.260336-.167018-2.160094-4.590641-1.081809-5.854959,3.869623-4.537237,5.20625-2.727115,6.123133-8.328451.069532-.424782.909906-.789276.853035-1.323695-.060132-.565063-.851599-.83506-1.073103-1.395899-.352656-.892911,1.114733-.93201,1.507264-1.230911.016468-.909508-.927449-1.802058-1.616317-2.55553l1.548597-2.008541c-.369692-.764933-1.214365-1.031217-1.492294-1.865046.52456-.448477,1.233373-.666049,1.304097-1.290337.187728-1.65709-1.322119-1.347076-1.218691-2.385946.043893-.440878,1.391503-.681596,1.306591-1.510147-.088237-.860992-1.232772-1.478689-1.309226-2.030222-.081697-.589359,1.441455-.95901,1.331286-1.895223-.08836-.750885-1.061602-1.049465-1.322457-1.686016-.261955-.639235,1.127029-.860391,1.299345-1.880341.135392-.801394-1.197497-1.285205-1.286605-1.902032-.089919-.622445,1.412772-.95538,1.291412-1.874136-.089682-.678938-1.109952-1.038685-1.329145-1.654126-.333465-.936292,1.147449-.784913,1.339023-1.939462.174158-1.049584-1.269706-1.142549-1.408806-1.866081-.164862-.857534,1.474601-.738114,1.403215-1.88606-.057735-.928421-1.421342-1.120287-1.338611-1.963569.059723-.608757,1.206193-.749047,1.367138-1.543916.090054-.444757-.278708-.827423-.860782-.933608-1.764138-.321821-9.114314-1.447842-9.368776-3.290229-.213708-1.547313-1.043479-3.285421-.833585-4.788102.811853-5.81224-.299767-4.239093.208143-7.379501.062836-.388514,1.275806-.708135,1.368889-.297712.43968,1.938635-1.254706,4.40756-.024933,6.134354.708307-1.240039.025041-4.863589,1.445934-5.009764.764012-.078598.253353-.083293.644924.55411.462992.753664-1.759319,2.037866-.117601,5.522948l1.146133-5.250002c.15955-.730837-.390182-1.5357-.249512-2.282734.299494-1.590478.403154-3.151657.423812-4.786098l4.744647-2.578809c.766706-.41672,1.136127-1.118876,1.236585-1.910341.074635-.588019-1.386674-1.249491-1.055487-1.772517l1.111981-1.756093c.35514-.560853-.867584-1.270401-1.151515-1.87607.136285-.781963,1.737902-1.70334.977383-2.705965-.292284-.385331-1.534303-.755007-.8565-1.37989.555517-.512144,1.37784-1.094842.980684-1.74718l-1.036143-1.701887c-.229889-.377598,1.027233-.99226,1.053222-1.451086.041717-.736499-.326173-1.576122-1.210902-2.037001.469446-.822699,1.167877-1.175884,1.205206-1.812321.057526-.980799-.625752-1.38449-1.336343-2.069789.53217-.674957.983075-.809031,1.14576-1.160784.814263-1.760575-1.540322-2.226814-.860622-2.873136.565622-.537846.955022-.822666,1.077572-1.591811.118896-.746213-1.041596-1.033488-1.116039-1.828126-.053415-.570176,1.072227-1.143068,1.140827-1.665807.137829-1.050275-.983639-1.270103-1.248285-2.132023.118263-.542239,1.142212-.977555,1.143896-1.421917.002414-.637321-.213688-1.405173-.853864-1.764746-1.203447-.67595,1.574331-1.863626.879735-2.79241l-1.064765-1.423757c-.331079-.442704,1.062202-1.056915,1.106626-1.691806.068263-.975593-.807867-1.323401-1.233905-2.134477.347193-.558569,1.166861-1.071214,1.241619-1.729053.094761-.83386-1.090105-1.354132-1.201375-1.986495.347922-.706586,1.166856-1.082539,1.233408-1.900658.069584-.855387-1.123063-1.039422-1.188782-1.838566-.043977-.534758,1.111325-1.052142,1.181608-1.617354.131531-1.057759-.998582-1.345118-1.206317-2.184499l1.228504-1.692343c.503597-.693737-1.002875-1.324748-1.336683-2.021473.374211-.681352,1.353607-1.03832,1.245446-1.876744-.102598-.795302-.462062-1.183209-1.441151-1.858322,1.180239-.607342,1.951392-2.121358,1.20747-2.998237-.238553-.281188-1.581064-.371762-.871142-.999526.626448-.553952,1.053107-1.009205,1.180003-2.038744.092695-.752061-.706262-.752144-1.637575-1.500572,1.130655-.659869,1.460241-1.172028,1.529989-1.819613.128472-1.192825-.565628-1.528177-1.770744-1.823041.365512-.701832,1.596144-.663781,1.621267-1.453458l.20407-6.414297,2.595769-.517327c-.567948-.958392-.240447-1.594923-.0678-2.429256.483249-2.335344.27354-4.771267-.174245-7.039059-.806369-.560417-1.669197-.615307-2.076547-1.515641,1.221253-.482211,2.29724-.940829,2.294966-2.047099-.005219-2.539691-3.081051-1.549854-2.096233-3.10051.292442-.460467.992886-.202908,1.299696-.350986,1.306436-.630533.286733-2.176194.391583-3.096174.14269-1.251997.626386-2.464979.618012-3.927339.118913-.512607,1.412233-.478283,2.077392-.65401-.378669-1.259439-.500939-8.389761-.31474-9.529937.237082-1.451755-.689036-2.070654-1.811282-2.456645-.453109-1.854871-.523758-4.346193.017132-6.322011.953776-3.48405,8.766843-.928844,4.989251-4.306382.241107-.592788.82733-.784256,1.289325-1.350573-.329223-.70366-1.029921-.819409-1.555364-1.304062.658523-.358066,1.313196-.449594,1.336085-1.102737.020665-.589678-.790711-.768826-1.323242-1.196353.621597-.442755,1.398156-.538243,1.368826-1.136608-.030578-.623812-.692208-.813567-1.360203-1.112481.193636-.422435,1.149612-.473251,1.10898-1.015581-.0474-.63266-.890994-1.04989-.60522-1.673484,1.035016-2.258526,4.46038-2.061125,6.492588-1.383813,1.019494.339786,1.50288.990268,1.630684,1.915168.110098.796762-.090296,1.474024-.857608,2.167989.396032.478439.741002.735819.88525,1.172299-.337348.369481-.723271.662484-.85244,1.078841-.143727.463279.85578.751001.825622,1.244206-.025569.418159-.762104.736969-.870543,1.171255-.110419.442219,1.170339.862012.950202,1.132053l-.947148,1.161859c-.29729.364684.652929.714331.881973,1.144894.169813.319219-.072215.665061-.084095.874212-.050958.897134,2.82593.032188,4.23166,1.398194,1.711086,1.662734,1.005406,4.949418.906974,7.586934-1.346971.160522-1.652196,1.105261-1.614833,2.283292.103141,3.25199.163669,6.346657-.095831,9.506682,3.929067.089198.485989,3.079521,3.342324,5.449069,1.510237,1.252858-1.155168,1.311109-1.018502,3.414804.0922,1.419236,2.060341,1.161563,2.015902,1.961816-.039171.705374-1.648251.97677-1.937162,2.01575-.226183.813399.08672,1.539837.567794,2.207526.37951.526727-.749573.880452-.766094,1.24109-.106519,2.325258-.027535,4.648369.263921,7.032229.112081.916727,1.703588.879609,2.207737,1.302679.995315,1.46288-.793726,5.820159,1.511454,6.326182-.861047.398801-1.421336.682982-1.447463,1.206374-.07676,1.537732,1.504664,1.899619,1.543059,2.259746.072709.681974-1.681088.940586-1.565001,1.873063.182423,1.46533,1.50136,1.430173,1.439157,1.99568-.077402.703682-1.583737.873463-1.420344,1.871937.18787,1.148043,1.289038,1.431794,1.468128,1.727853.341836.5651-1.3837,1.07102-1.420722,1.774813-.073151,1.390592,1.318305,1.823749,1.325339,1.998429.033824.8399-1.334763.932586-1.356466,1.872121-.030466,1.318854,1.735299,1.249277,1.493089,1.985228-.265127.805582-1.394016.944064-1.518676,1.598141-.229803,1.205755,1.446822,1.58326,1.46744,1.886591.055096.810569-1.287147,1.157592-1.505194,2.013196-.348533,1.367621,1.488717,1.242352,1.513432,1.854987.038614.957166-1.615975.898981-1.540761,2.311811.061208,1.14974,1.845391.632651,1.349672,1.868195-.235797.587709-1.244149.639852-1.312809,1.625793-.098619,1.416147,1.86624,1.083237,1.43833,1.910179-.310579.600198-1.431673.835527-1.495874,2.007531-.034738.634143.668693.797972,1.323631,1.193514.931694.562686-1.340424,1.442761-1.317818,2.622795.011938.623184.710842.802984,1.250575,1.255095.282589.963905-.982098,1.020088-1.244258,2.600832-.103737.625499.857877.574459,1.150812.969088.558702.752657-.629199,1.526167-.999347,2.032149-.75851,1.03686.820459,1.20564,1.077111,1.649452.490007.847338-.802876,1.571745-1.223642,2.112899-.667461.858433,1.012032,1.366556,1.116245,1.951388.184259,1.034041-1.102956,1.571806-1.888712,2.104367l2.099333,1.529349c-.15425,1.16033-1.441506,1.375079-1.364601,2.335575.06635.828669,1.128754,1.046415,1.189746,1.669469.072676.742405-1.135869,1.293545-1.149474,1.854863-.021981.906933,1.132826,1.120056,1.324073,1.605008.321139.814321-1.368204,1.318131-1.284961,2.215534.051667.556991.86939.859461,1.164796,1.353416.484295.809803-.825288,1.416136-1.138723,2.063185-.397419.820424.971232,1.22245,1.148769,1.704472.35124.953635-1.32015,1.595657-1.340571,2.363368-.009165.515508,1.058931.875233,1.19227,1.260157.231422.668072-.341141,1.301649-.786281,2.158177,1.514594.275876,4.135391.56271,4.91958,2.260824.883959,1.914157.503987,4.255038,1.256969,6.261023,1.283027.486344,2.589073-.346218,3.513224-1.413587,1.395399,2.656157.028989,5.507614.646427,10.452095.229967,1.841588-.526843,3.278076-2.22781,3.754765l-6.956526,1.949537c-.463436.870286-.576251,2.574813-2.369518,2.896635.662884.818716,1.769152.621267,2.102181,1.469162.531664,1.353622-2.349877,1.83571-1.814988,2.912898.135853.273589,1.768954-.082009,1.969605.841625.272228,1.253123-2.863278,1.938749-1.888955,2.980025.435747.09543,1.303143-.209314,1.715526.459101.806395,1.307054-2.141655,2.194555-1.716138,3.043899.56053.398961,1.242859.311466,1.84277.620249.273809,1.191734-1.385764,1.608481-1.679806,2.753359.129155.478997,1.516748.509001,1.586793.989004.246391,1.688451-1.575089,1.82086-1.633304,2.660435-.056227.810913,1.017351.427078,1.476489.817447,1.247359,1.060531-1.722627,2.220567-1.284673,3.287303.116763.284403.478053.012527.92536.197363,1.600015.661154-.811308,2.379684-.741956,3.038849.074519.708266,1.431652.642624,1.424019,1.573263-.005797.70676-1.205976,1.412215-1.35028,1.917271-.171592.600562.911594.590165,1.146899.928856.71961,1.035786-.598925,1.919279-1.124916,2.746381.081783.429662.906027.712017,1.101808.983017ZM59.507486,172.785103c-.131662-.240987-.330543-.249301-.686126-.260675l-7.375073-.235901c-1.332549-.042623-2.533436.139586-3.504091.907428,1.863869,1.006253,12.749224,1.756152,11.565291-.410852ZM57.72607,178.838955l-3.207083-.698949c1.235926-.771583,2.180469.566075,3.24879-.40152-4.340599-1.472838-5.347359.545387-5.757732.531859-.398428-.013134-.972292-2.412017-3.881928-.734416.724545.482676,1.408973-.479045,1.8516.368533-2.751926.284266.169138-.374535-2.859176,1.165774,1.149655.660675,2.169697.154805,3.200021-.014413.26926.26698.586698.733232.867033.701483.281466-.031878.5189-.248618.843993-.365775,1.802775-.649686,3.560275,1.18414,5.694481-.552576Z"/>
    <path d="M117.281398,244.416125c-5.264178,1.798112-15.892012,1.555903-21.757753,1.139038-1.591791-.113125-2.876612-.335886-4.442888-1.140097.820724-5.117488.332934-10.199091.817078-15.388813.133397-1.429927.736662-2.659457.753206-4.287201.071534-7.038116.263476-13.828743.802882-20.90491.340387-4.465347,4.137233-8.286682,8.397134-9.316794,5.9806-1.446205,12.659886,2.888434,12.982555,9.14527l1.205374,23.373304.459423,1.667743.290908,11.478251c.035693,1.408311.875642,2.664069.49208,4.234209Z"/>
  </g>
  <g>
    <path d="M207.200531,244.460164c-.500497.068602-.685164.555711-.899192.717745-.260667.197343-.627483-.629534-.85723-.537063-2.30163.926391-4.932847.711257-7.190082-.116505-.262334-.096202-.89707.917372-1.066381.784044l-1.006445-.79255c-.848741-.668363-27.462496,1.167728-21.841141-9.280743.833272-1.548811,6.980986-1.119284,7.115686-7.975107l.452095-23.010244.260626-38.299057.030016-36.74995-.286275-9.41339c.346608-.638565,1.300817-.988868,1.496981-1.673657.648506-2.75261.260448-5.579903.021395-8.376623-.080173-.937959,1.234618-1.543519,1.493063-2.194291-.478366-.53504-1.718628-.774666-1.761218-1.574032-.05891-1.105669.4988-1.658124,1.592497-2.188097-.768442-.740793-1.571543-1.414426-1.743879-2.446428.338377-.72653,1.380862-1.00448,1.57868-1.71314.240222-.860569-1.280756-1.086702-1.517228-1.676383-.435476-1.08593.84621-1.916346,1.712902-2.512464-.987678-.687641-2.176334-1.322046-1.72214-2.565301.316516-.866391,1.630933-.929239,2.458674-1.489212-1.298928-.255065-3.136744-1.390616-2.367195-2.900298.221061-.433673,1.094235-.519385,1.185176-.934675.34651-1.582364-1.848047-1.222361-1.275398-2.809791.330249-.91548,1.534996-1.240132,1.644003-1.399048.455724-.664379-1.628448-.977405-1.794133-1.931604-.280106-1.613156,1.224231-1.605446,1.42572-2.273366.187997-.623195-2.449033-1.72821-.966538-3.033109.503111-.44284.930447-.824523.801804-1.501387-.081078-.4266-.69253-.830436-.967299-1.295847-.585738-.992141.818525-1.664043,1.01162-2.458021.376941-1.549927.907498-2.730265,1.867609-3.618858,1.31472-1.216787,2.961464-.16402,4.056123-.469966,3.901602-1.09046,6.825668-.081625,12.371746-.615157,2.944314-.283243,9.758258.125435,11.914537,1.376966.80249.465776.392234,1.558884.863842,2.381988.026086.045529,1.974324,1.614779.727417,2.424633-.367832.238904-.893829.344826-1.022811.817309-.184121.674468,1.600662.933542,1.755038,1.864563.259579,1.565479-1.796263,1.271486-1.714004,2.236234.081498.955833,1.477295,1.357134,1.736205,1.977199.373016.893338-1.527749.988218-1.668224,2.244688-.112874,1.009596,1.960027,1.063751,1.752415,2.293179-.182874,1.082934-1.543812.974938-1.85589,1.541061-.40343.73184,2.599622,2.037997,1.704384,2.776402l-1.885448,1.555144c.696416.938193,1.69798,1.296763,2.074205,2.274974-.49634.719596-1.722739.853808-1.952971,1.636118-.326658,1.109956,1.164262,1.283905,1.698537,1.851089.898701.954059-1.665777,1.869631-1.689069,2.552543-.029035.851296,1.560833.748091,1.792672,1.957947.217701,1.136077-1.554462.8627-1.831251,1.868703-.280108,1.018064,2.110144,1.767024,1.641449,2.538689-.326058.536826-.957352.734587-1.124788,1.084111-1.00765,2.103473,2.026264,2.218659.584752,3.767053-.83843.900597.040572,1.674448.165167,2.571405.289262,2.082393-.646846,4.605231.398115,6.614555.58187,1.118859,1.273174,1.716507,1.267671,3.224269l-.129321,35.430095.953188,60.235883.408303,9.20168c.161055,3.629608,2.078628,5.765713,4.93472,7.625808,1.338339.871624,1.72702,4.326945.621714,5.388977-3.950104,3.795454-12.15848,4.287043-17.435197,5.010309Z"/>
    <path d="M249.43367,243.002631c-5.747661-.060759-8.187187-.232712-13.576083-2.304338.052859-1.919344-.214685-3.815844.151026-5.695475.208764-1.072977.572761-1.942056.5848-3.172586l.247093-25.256645.19155-12.565781,2.186177.333205c.624224-.18782.454013-1.09719-.341348-.50558-.32156-.169118-.159903-.643252.057884-.678936.197809-.032411.684884.03801.905521-.148908.495113-.860324.06134-1.748268.189935-2.763036,1.354368.339305,1.864646-.482659,2.608639-1.222536,1.167454-1.160995,2.694848-1.833885,3.979244-2.917023,1.798596-1.516765,4.304045-1.591678,6.404687-2.719591,3.060684-1.643394,10.161099,1.063072,12.131025,2.547522.065417.049296,6.754379,5.284785,6.003439,4.574178.756494.715862-.256936,2.676219.865532,3.564402.639548.415049,1.43868-.091144,2.406078.015511l.635651,38.884784c.043271,2.646998,1.24858,4.957819.689961,7.606029l-2.702689,1.146902c-2.368423,1.005054-19.528651,1.321134-23.618121,1.277904Z"/>
  </g>
</svg>