<?xml version="1.0" encoding="UTF-8"?>
<svg id="Layer_1" xmlns="http://www.w3.org/2000/svg" version="1.1" viewBox="0 0 155.060606 232.590909">
  <!-- Generator: Adobe Illustrator 30.1.0, SVG Export Plug-In . SVG Version: 2.1.1 Build 136)  -->
  <path d="M73.809743,208.816212c.613466.831081-1.518397,4.038919,2.162086,6.633788,2.248874,1.585534,3.928276,4.477879,2.539424,7.243757-.606542,1.20792-2.570507,2.280213-4.144264,2.275863-10.621768-.029355-21.115841.499381-31.799935-.293345-2.253383-.167194-2.166278-4.586285-1.097296-5.835703,3.898397-4.556416,5.245573-2.786776,6.138646-8.347273.068044-.423661.910728-.788512.853239-1.323117-.060813-.56552-.851337-.83396-1.073339-1.396482-.351464-.890557,1.11407-.932474,1.5073-1.228133.015685-.916758-.926434-1.803414-1.61641-2.55785l1.548767-2.008349c-.369692-.764938-1.214346-1.031234-1.492316-1.865076.524721-.448477,1.233402-.665994,1.304151-1.290419.18783-1.657772-1.322063-1.34623-1.218711-2.385834.043829-.440871,1.391498-.681594,1.306584-1.510157-.088238-.860991-1.232768-1.478687-1.309228-2.030222-.081689-.589256,1.44033-.958218,1.331562-1.895236-.087245-.751597-1.061838-1.049009-1.322778-1.685939-.261892-.639254,1.127394-.860799,1.299364-1.88039.135438-.802998-1.198047-1.285344-1.286653-1.901386-.089755-.624037,1.412898-.95564,1.291484-1.874798-.089682-.678928-1.110029-1.038879-1.329176-1.65405-.333279-.935552,1.14466-.782651,1.338282-1.939702.175625-1.049503-1.268916-1.142102-1.408026-1.865918-.164834-.857664,1.47409-.737632,1.403194-1.88598-.0573-.92813-1.421344-1.120399-1.3386-1.963652.058871-.599958,1.205948-.766757,1.361542-1.520658.10757-.521212-.273191-.84921-.855452-.955662-1.764955-.322677-9.114121-1.44998-9.368504-3.291403-.213766-1.547407-1.043383-3.285364-.83359-4.788172.824211-5.904036-.289031-3.955174.20773-7.38301.058362-.402722,1.288224-.677317,1.367861-.299258.435747,2.068609-1.256519,4.332716-.023955,6.139406.705773-1.214085.028724-4.889763,1.448386-5.007924.747708-.062233.257078-.10098.644908.554513.448965.75882-1.755478,2.048315-.119942,5.520337l1.145873-5.249401c.159593-.731119-.389013-1.535804-.248756-2.282941.2986-1.590615.40431-3.15142.423739-4.7863l4.744564-2.578334c.768409-.417576,1.133632-1.11747,1.238026-1.912716.073258-.558053-1.099371-1.096418-1.057647-1.755107.045359-.716076,1.105039-1.101707,1.112008-1.772367.008076-.777257-.869689-1.28047-1.151919-1.867727.140424-.810177,1.740952-1.691571.975338-2.718338-.278771-.373861-1.53794-.752355-.853379-1.375794.557375-.507609,1.37648-1.096917.980837-1.746059l-1.036492-1.700602c-.230048-.377447,1.026032-.988843,1.054759-1.476235.039437-.66911-.329235-1.552721-1.212118-2.015159.468728-.824461,1.168212-1.172536,1.205275-1.810359.056973-.980459-.625037-1.387146-1.337312-2.06738.538472-.691292.976902-.795179,1.140307-1.150344.824499-1.792067-1.536564-2.231115-.853786-2.886918.56011-.537982.962994-.818589,1.075495-1.592679.106994-.736202-1.023189-1.038645-1.121388-1.82488-.016642-.565468,1.040769-1.165433,1.146754-1.658168.231758-1.077469-1.569942-1.622756-1.181954-2.133019l1.088122-1.431047c.637058-.837829-1.97788-2.234024-.906073-2.796123.71084-.372793,1.282021-1.279933.922376-1.761402l-1.063708-1.424024c-.326911-.437647,1.052213-1.063373,1.107263-1.688513.08639-.981026-.849931-1.3199-1.210283-2.140086.282236-.548915,1.155385-1.067923,1.219788-1.726164.081886-.836935-1.091442-1.34116-1.198943-1.992295.296925-.701725,1.228794-1.054115,1.213024-1.905108-.01474-.795432-.901731-1.067872-1.305908-1.816346.271468-.570778,1.217488-1.030873,1.281006-1.635743.108849-1.036544-.746513-1.350565-1.340737-2.165292.475735-.558608,1.243545-1.079137,1.372337-1.699445.206441-.994295-1.054435-1.339007-1.287973-2.017817.317135-.702894,1.339127-1.039499,1.221203-1.885952-.11035-.792091-.459922-1.18298-1.4448-1.859197,1.183296-.604071,1.960136-2.112195,1.206148-3.000161-.232751-.274109-1.583516-.378761-.867562-.990207.655928-.560182.991106-1.030668,1.201069-2.036831.157188-.753257-.993221-.807032-1.494673-1.474981.762579-.741365,1.350625-1.178685,1.385937-1.854328.062172-1.189568-.562235-1.525897-1.793536-1.821739.369575-.701337,1.598605-.663654,1.623734-1.453229l.204135-6.414298,2.595746-.51734c-.568022-.958201-.240342-1.594828-.067733-2.42922.483126-2.335426.273559-4.771295-.174297-7.039088-.806344-.560412-1.669188-.615304-2.076534-1.515638,1.221252-.482211,2.29724-.940828,2.294965-2.0471-.005221-2.53944-3.083043-1.551288-2.096157-3.100604.292454-.459125.992611-.20346,1.299304-.35148,1.307033-.630813.286875-2.175715.391881-3.095544.142929-1.252023.625943-2.465062.618305-3.927293.117986-.512803,1.41169-.478465,2.077133-.654234-.378621-1.25988-.500905-8.38747-.315036-9.530237.235697-1.449117-.685238-2.073018-1.812386-2.455305-.449524-1.857351-.523371-4.346083.018416-6.323076.955617-3.487065,8.733553-.917936,5.004274-4.304649l1.162515-1.363411c-.014527-.671795-1.030701-.8198-1.43185-1.291528.639452-.360172,1.302157-.450922,1.324691-1.103995.020348-.589721-.791106-.768867-1.323471-1.196375.621686-.44277,1.398366-.538315,1.368709-1.136592-.030925-.623852-.690202-.814228-1.36182-1.112244.200754-.423754,1.149454-.472413,1.109599-1.016267-.04622-.630709-.887852-1.050913-.604391-1.672876,1.028875-2.257536,4.4617-2.060665,6.492811-1.384,1.019797.339745,1.502658.990397,1.630792,1.915178.110445.797114-.090265,1.473756-.857777,2.167907.396199.478457.741199.735965.885314,1.17243-.337121.369506-.723269.662509-.852645,1.078849-.143964.463285.857396.750186.826329,1.243664-.026333.418278-.762429.737574-.870813,1.171672-.110842.443943,1.172277.861331.949881,1.133739l-.947042,1.16001c-.297352.364219.651341.714811.882787,1.146267.168986.315021-.074577.671251-.086508.876763-.05159.888692,2.826322.03028,4.233068,1.394619,1.710417,1.658855,1.006999,4.954871.906258,7.586673-1.338122.165723-1.662097,1.090743-1.614566,2.298091.124838,3.171081.123568,6.420851-.066919,9.454021,3.901008.227108.45668,3.112131,3.314175,5.486811,1.407004,1.169271-.929716,1.449248-1.033981,3.043826-.124133,1.898442,2.078959,1.458431,2.031579,2.33287-.038369.708132-1.623206.956276-1.927929,2.003514-.249731.858247.068977,1.54634.559322,2.221894.37831.521202-.750801.879644-.767261,1.239643-.106296,2.324794-.02736,4.648003.264005,7.031735.112056.916757,1.70382.879682,2.207681,1.302589.995523,1.462767-.793702,5.820244,1.511538,6.326276-.860969.398769-1.421311.683208-1.447439,1.206086-.076583,1.532631,1.501797,1.902044,1.542361,2.260429.077035.680607-1.680514.939516-1.564337,1.872633.182445,1.46537,1.50138,1.430222,1.439174,1.995719-.077438.703969-1.583972.872965-1.420277,1.872548.188737,1.152503,1.304747,1.440681,1.467357,1.725076.33344.583165-1.382125,1.06549-1.419913,1.776959-.073878,1.390956,1.318627,1.822355,1.325285,2.000173.03141.838794-1.335102.931729-1.356556,1.870406-.030149,1.319093,1.735351,1.249229,1.493129,1.98522-.265126.805581-1.394013.944063-1.518678,1.598141-.2298,1.205694,1.44711,1.583564,1.467449,1.886599.054669.814535-1.286999,1.156984-1.505235,2.013108-.348603,1.367542,1.489058,1.242666,1.513416,1.855069.038132.958669-1.616716.90098-1.540773,2.311833.061771,1.147566,1.842324.636131,1.351846,1.86317-.239693.599647-1.246072.64218-1.314872,1.630771-.098844,1.420271,1.868246,1.078662,1.436389,1.91386-.306371.592511-1.42985.832777-1.493982,2.003873-.034727.63414.668665.797975,1.323655,1.193516.931504.562524-1.334022,1.436144-1.319154,2.622243.007942.633607.723802.789209,1.246066,1.261436.521019.471101-1.005924,1.180675-1.238813,2.595288-.10259.623151.860377.575862,1.149569.96788.56132.760905-.62247,1.515459-1.003516,2.039719-.736999,1.013997.823741,1.204172,1.079359,1.644955.489809.844618-.791861,1.565447-1.221178,2.113014-.668351.852438,1.013606,1.367664,1.117954,1.947973.186741,1.038525-1.109632,1.569352-1.887317,2.106057l2.097104,1.528845c-.153484,1.159946-1.441309,1.374965-1.364398,2.335577.066347.828667,1.128753,1.046414,1.189746,1.669469.072676.742404-1.135868,1.293544-1.149474,1.854863-.021984.906938,1.13293,1.120137,1.324091,1.605011.321145.814572-1.365771,1.315055-1.284831,2.215525.050109.557469.869613.858497,1.165773,1.35464.478105.800947-.824739,1.426333-1.136245,2.055884-.416432.841606.971187,1.220261,1.148814,1.711432.340493.941525-1.304813,1.612299-1.363007,2.355251.051184.526364,1.067773.886729,1.212587,1.283844.205984.564859-.324537,1.330938-.795095,2.142273,1.568677.26585,4.07643.572587,4.946617,2.262832.941288,1.828349.279045,4.41173,1.370029,6.165151.787409.826258,2.70411-.419679,3.338227-1.292122,1.445327,2.199719.084339,5.616288.688274,10.424034.231295,1.841267-.527064,3.278171-2.227415,3.754637l-6.956879,1.94943c-.463901.870588-.576253,2.575169-2.369048,2.896863.66261.818649,1.769174.62111,2.101955,1.469253.531491,1.354583-2.352035,1.835742-1.814513,2.913955.134846.270488,1.771177-.081453,1.968964.840624.268606,1.252231-2.840805,1.931411-1.898639,2.970346.450509.105944,1.312924-.198468,1.72614.468467.807359,1.303086-2.143479,2.197405-1.716844,3.044009.560618.399014,1.242655.311097,1.843243.620656.274612,1.190551-1.385454,1.608274-1.681003,2.750822.129848.482375,1.518001.509627,1.587562.990915.243901,1.687546-1.557708,1.809311-1.634235,2.660453-.072365.804858,1.04417.439667,1.468427.808517,1.262858,1.097933-1.729982,2.227151-1.275734,3.296717.121211.285402.473202.010548.926241.197449,1.598542.659476-.812977,2.378527-.742098,3.038354.075903.706604,1.430951.644972,1.423293,1.573365-.005829.706684-1.204649,1.410902-1.350297,1.917138-.172884.600899.911492.588763,1.14659.928758.712953,1.031064-.580141,1.925978-1.138792,2.739681.124478.449455.907704.709545,1.115438.990969ZM59.507487,151.97962c-.131665-.240976-.330545-.249304-.686125-.260679l-7.375057-.235929c-1.332384-.042623-2.533141.140832-3.50419.907332,1.863923,1.006524,12.74934,1.756205,11.565372-.410724ZM57.72607,158.033472l-3.207083-.698949c1.235926-.771583,2.180469.566075,3.24879-.40152-4.340613-1.472837-5.347351.545385-5.757732.53186-.398404-.013131-.972337-2.411985-3.881784-.734456.725016.482528,1.405918-.478304,1.853978.368074-2.755987.286197.16748-.375482-2.861579,1.166583,1.148109.658732,2.172884.157083,3.198546-.016587.271472.274751.587997.732899.868284.702941.281776-.030117.519068-.248476.844046-.365503,1.80318-.649341,3.560385,1.184177,5.694535-.552442Z"/>
  <path d="M117.281398,223.610641c-5.26419,1.798115-15.891999,1.5559-21.757752,1.13904-1.591821-.113126-2.876544-.335883-4.443099-1.140166.820938-5.11741.332964-10.199083.817495-15.388591.133496-1.429793.736481-2.659461.753013-4.28733.071479-7.038162.263477-13.828727.802873-20.905004.340353-4.465056,4.13742-8.286937,8.396965-9.316824,5.980867-1.446074,12.660008,2.888592,12.982687,9.145396l1.20542,23.373274.459404,1.667745.290912,11.478251c.035693,1.408311.875641,2.66407.49208,4.234209Z"/>
</svg>