<?xml version="1.0" encoding="UTF-8"?>
<svg id="Layer_1" xmlns="http://www.w3.org/2000/svg" version="1.1" viewBox="0 0 148 222">
  <!-- Generator: Adobe Illustrator 30.1.0, SVG Export Plug-In . SVG Version: 2.1.1 Build 136)  -->
  <path d="M69.2304543,191.1867572c-1.2497894.8871206,1.0990095,1.1198873,1.0845679,2.1737652-.0101146.7381156-.5272192.8923943-1.1900983,1.6613336-.4196315.4867722,1.0841424.8410524,1.1468316,1.3807289.1366362,1.1762696-.9286674,1.463899-.9327812,2.4393557-.0013716.3252211.90258.7372596.873223,1.0638201-.9617503,6.4590719,2.3915825,4.7700091,4.3991245,9.0633525.5640682,1.2063203.593856,2.8652022-.046875,3.9625617-.5415473.9274908-2.0619706,2.0685772-3.5932875,2.0966498-10.248392.1878768-20.4257107.2787633-30.7261014-.0817246-1.4911945-.4104155-1.7359455-2.6299241-1.6871775-3.7361768.1521717-3.4518605,5.172311-4.7561534,6.0749248-7.7461592.3469487-1.1493051.0825129-2.4463433,1.397406-3.2676544l-1.3436312-1.8204777c.5772902-.5177381,1.1902002-.8752231,1.2724318-1.3068948.1560275-.8190597-.4656141-1.1777079-.9324521-1.6567839-.7592292-.779132,1.181599-1.4168959,1.0286335-2.4210429-.0636146-.4175999-.9298098-.7989625-1.1347831-1.2508751-.3661859-.8073441,1.1986986-.6642879,1.0303588-2.3637132-.0422449-.4264715-1.3658358-.9844734-1.0271057-1.3990298l1.0778102-1.319083c.4361565-.5337921-1.0733084-1.8432927-1.1226464-2.1772231-.0762554-.5161132,1.1955334-.7366474,1.1098824-1.8182607-.0718328-.9071154-1.1859629-1.2004895-1.1186335-1.8221527.0439574-.4058666,1.1769914-.8004026,1.2274492-1.4994502.0545096-.7551814-1.1021024-1.3880828-1.1955298-1.8848213-.0984866-.5236376,1.2181097-.9350173,1.1904662-1.8154161-.0220304-.7016319-1.2953727-1.0414097-1.2648499-1.818869.0244257-.622156,1.4851788-.8979749,1.313611-1.8312838-.1202276-.6540246-1.2226314-1.0002297-1.338103-1.5384831-.157732-.7352447,1.2254559-.6150245,1.1903151-1.8247589-.0308087-1.0605988-1.2188336-1.0532482-1.1250676-1.8452949.0429199-.3625465,2.3576743-1.8054085,1.0769934-2.1087909l-6.1011591-1.4453125c-1.0896558-.2581302-2.810526-.5516308-3.2772823-1.7655244-2.091766-5.4400586.0003552-6.0211614-.8554452-9.9370429-.2760527-1.263133.1499929-2.5820365,1.5386973-2.8227943.8025051-.1391293,1.6584206.0149583,2.5869732-.3155828.3998101-1.1962489.3746675-2.3876541.3428865-3.7461156,1.4227674-1.5061412,5.9299871-2.1445515,5.6896389-4.6126373-.0705556-.7245212-1.1391823-.9777021-1.0270188-1.7240725.5417266-.4310009.9571147-.9076589,1.1092403-1.4423736.221921-.7800422-.8971905-1.1123722-1.0297765-1.8056207-.0742953-.5649142.989848-1.0841651,1.0231084-1.5712473.0534171-.7822671-.4379741-1.4354962-1.2897104-1.9527361.5083267-.6905137.9341874-.7972907,1.1033838-1.1445578.6289243-1.2908356-.72608-1.8968011-.867655-2.439087-.2020592-.7739631,1.5420208-.654926.9501477-2.4316827-.1207543-.362495-.7329669-.5895682-.9869806-1.1158329.3894121-.6057884.9878107-1.016776,1.1300776-1.5710626.2491142-.9705748-1.4095398-1.528348-1.0505396-2.0681384l1.0816172-1.626313c.3636801-.5468272-.9909285-1.1964262-1.0900076-2.0007051.1133185-.5146335,1.4211655-1.1761252,1.0936859-1.6957724l-1.0879665-1.7263936c-.260695-.4136729.9804911-1.0984097,1.0774686-1.5832283.2028528-1.0141194-1.4940163-1.5493688-1.117836-2.0416599l1.0314846-1.3498598c.6406891-.8384424-1.860678-2.0430979-.8150935-2.6408684.6533129-.3735051.7872241-.9982434.8290428-1.7214251.0258457-.4469564-1.007776-.7461085-1.0092727-1.360408-.001574-.6459885.9999508-1.0128146,1.0537663-1.610024.0840412-.9326343-.8225686-1.2544037-1.1434131-2.0470901.2709124-.5285742,1.1304414-1.0323936,1.141454-1.6526069.0146239-.8235926-.9431133-1.1092798-1.0769071-1.842902-.0910719-.4993679.9974185-1.0222962,1.0655745-1.5162025.1191926-.8637529-.7107071-1.4175071-1.1929989-2.0766465.2077546-.5348862,1.1646149-1.0006643,1.207846-1.5697625.074638-.9825396-.6779665-1.2946964-1.288903-2.0643812.4796946-.5519057,1.183456-1.0298249,1.2857909-1.6302003.1620393-.950648-.9686387-1.3137187-1.2406389-1.9407709.4128725-.7053099,1.2052697-.9983343,1.2287623-1.7604065.0247101-.8015679-.8809534-1.138262-1.1052127-1.7774325l1.1112894-1.5305723c.557918-.7684172-.6343734-1.4187241-1.3119817-2.0388075.8386918-.7804883,1.8915368-1.9171169,1.058606-2.9025197-.1979082-.2341362-1.2181835-.3213472-1.0305488-.8045653.7818556-.6205679,1.166569-1.026634,1.231034-1.6658399.1180429-1.1704605-.5150048-1.4794189-1.6986396-1.7444907.3839214-.6415423,1.5136797-.6303997,1.5407244-1.407501l.212159-6.0961554,2.4964714-.5234776c-.5585063-.8890976-.2839437-1.4904464-.1010105-2.2971289.4812373-2.1221167.2018229-4.334604-.0655612-6.4974246-.6328536-.7507349-1.6303115-.7268394-2.0868634-1.6584388,1.1665273-.472019,2.2015889-.9137212,2.1974735-1.9591238-.0098456-2.5009592-4.6668717-2.0823323-.8202958-3.4423596,1.4083279-.4979401.2990975-1.9669671.4269682-2.7865146.1887244-1.2095702.5602135-2.3730451.6267571-3.7589834.02538-.5217336,1.3553023-.4734286,1.9619739-.6253419-.688412-2.2761137-.0214711-9.4823752-.6811438-10.8216011-.2437825-.4949118-2.5770374.7897972-1.454485-6.3846145.5974887-3.8186456,8.3217768-.8039589,4.9648487-4.6177789.3709183-.3416327.943297-.631986.9416945-1.1512628-.001464-.4743763-1.0526364-.7203835-1.1552732-1.1260524.2491976-.4325961,1.2340604-.4411432,1.1683738-1.0832207-.0519125-.5074376-.8056698-.7277128-1.2716485-1.1388444.5546917-.4271521,1.2827634-.5785138,1.2881048-1.0900068.0065239-.6247314-.660705-.7620016-1.2894409-1.0578923.3114634-.3797966.6922965-.4718756.9077675-.6309027.6069287-.44794-.3043709-.8209228-.3894555-1.2952329-.4782409-2.6659876,4.7171483-2.7340911,6.212381-1.9896333.758561.3776781,1.3759332.8156089,1.4813039,1.6191951.0955335.7285651.0910754,1.5161935-.8204361,2.1334609.1856016.5897194.6581005.7926292.9031817,1.2434127-.3355011.4149243-.7800905.7149207-.8592263,1.0911153-.0984624.4680691.7971135.671597.8478355,1.1174034.0435196.3825037-1.0786458.9246129-.8927106,1.1501575l.9122315,1.1065623-.9255302,1.0880489c-.2808814.3302028.6758599.6588776.8791265,1.0778444.1484547.3059902-.083443.6676244-.1010559.8716744-.0659428.7639653,5.2933017-.1597202,5.1468276,3.5570811l-.1977275,5.0173649c-1.1690509.0909813-1.6024401.7661951-1.5627739,1.8175321.118603,3.1435227.1521373,6.3635946-.0920656,9.3792663,3.8630273.4135753.2787282,2.4669708,3.3259865,5.4385139,1.0326021,1.006945-.9627538,1.1236773-1.1160408,2.750435-.1606877,1.7052963,1.9429138,1.3805593,1.9314066,2.1932079-.0115013.8122357-1.545195.8600772-1.8427512,1.9389192-.2143506.7771657.0120552,1.4708554.5912079,2.1108127-1.3034341,1.3779532-.8035354,6.3524501-.4371888,8.0864661.150243.7111401,1.6360724.6552314,2.0110778,1.0441421.9706825,1.4439115-.8043973,5.5327738,1.4607358,6.030961-.7961383.4117503-1.3603022.6379191-1.3539435,1.1007324.0241411,1.7570924,1.4076755,1.8090127,1.4392507,2.2132548.0480335.6149513-1.3491971.8741435-1.4860323,1.5317531-.2177342,1.0463978,1.2227627,1.8065685,1.2913902,1.9078568.4825999.7122762-1.2125306,1.1145347-1.2582329,1.7248188-.0875582,1.1692061,1.2824833,1.7114897,1.3645864,1.9431769.2243283.6330337-1.3353234,1.1573702-1.3594732,1.7577075-.0392621.9760154,1.2324896,1.6381733,1.2692369,1.8797865.097097.6384118-1.3016884.9593985-1.2906611,1.7790861.0159841,1.1881418,1.6277879,1.1841827,1.4147173,1.9015819-.2159202.7269936-1.3348873.9079098-1.443572,1.5123498-.1981803,1.1021613,1.3684007,1.5025577,1.3959196,1.8032.071467.7807711-1.2758226,1.1718161-1.4367223,1.8900764-.2354762,1.0511713,1.4082757,1.3497877,1.4426541,1.7985022.0632308.8253043-1.2627927.8933545-1.429551,1.8421317-.1997736,1.1366187,1.3748258,1.0542519,1.3299378,1.8590582-.0493635.8850487-1.2564848.7873815-1.3440852,1.837521-.1064032,1.275545,1.7705625,1.0505533,1.3884976,1.8254953-.3562739.7226301-1.3572392.7523069-1.4301139,1.8744935-.0439713.677107.7143051.7548912,1.2243521,1.1990605.743671.6476185-1.0937089,1.5166584-1.1940491,2.1736336-.1275873.8353749,1.3283436,1.1824995,1.2415695,1.7602005-.1204405.8018357-1.0925792,1.1228826-1.2253552,1.8946917-.1052992.61209.4477831.7888777.9832625,1.1250149,1.0149902.6371413-1.062345,1.8650897-1.0316025,2.5649148.0405172.9223354,1.4867915.6523739,1.3104072,1.4391261-.2326211,1.0375931-1.2355444,1.2673262-1.3035398,1.885769-.0847527.7708566,1.2145099,1.1400588,1.2509008,1.5261421.0731577.7761542-1.2185936,1.3176455-1.274802,2.1461923-.0457255.6740219.667471.8934318,1.1243904,1.3555686.7745934.7834382-2.2399739,1.8639522-.7443432,2.9496804.397905.2888525.7534131.5356568.7541905.8843708.0021837.9794952-1.123338,1.3023266-1.1126604,1.8141878.0195406.9367394,1.1821924,1.0901279,1.3000065,1.5646715.1884172.7589261-1.0415973,1.2029947-1.2370546,1.8569852-.2053033.6869349,1.2273474,1.3267567,1.2274113,1.7768325.0001269.8942109-1.5047159,1.4504822-1.255792,2.1388482.1721744.4761255.7514593.8363523,1.2696208,1.1802002-.1194518.9469696-.9850263,1.480846-1.3915731,2.3531678.5249045.5515671,1.1311345.8506565,1.180664,1.3692367.0577229.6043668-.4250771,1.0699983-.8105426,1.8328103,1.4062211.3429466,3.8831842.5225989,4.728932,2.0826084.9131767,1.6843842.2432852,4.2748997,1.2918826,5.9830318.8626411.6834478,2.7701023-.6052956,3.1023981-1.6231428,1.4725987,2.531324.1997773,5.5669982.7574199,10.6832836.1825482,1.674852-.6623448,2.8372819-2.1326715,3.2462064l-6.4179776,1.7849559c-.5309154.8919101-.8834054,2.4916875-2.465678,2.8338272.6564097.7371055,1.8517906.6394221,2.0221529,1.5017438.1564517.7919106-.8849351,1.3438036-1.4722542,1.8613978l1.6946988,1.7256688c-.3526481.9298567-1.1702396,1.3056819-1.7339565,1.9959044l1.4886513,1.2843435c.8666966.7477481-1.7542238,1.7838882-1.5018171,2.7525097.0834876.3203874,1.0990525-.0622904,1.555423.6852875.1257403.2059745.0724777.6580392-.1938232.9350574l-1.3349124,1.3886361,1.6175013,1.3662407c-.1877946,1.002116-1.0108896,1.5607335-1.6946029,2.306144.4390041.4879395,1.4087127.5119376,1.6013278,1.0985401.3017707.919032-1.1374723,1.5598926-1.0258567,2.3427278.0751464.5270522,1.059557.8651004.9573795,1.4327196-.1065451.5918822-.3002616,1.0555335-.8989108,1.4804643ZM56.6693524,145.4340853c-2.4732477-.2539099-10.0221941-1.0799687-11.2616133.3601743.7735218.8448417,11.9740365,1.6362988,11.2616133-.3601743Z"/>
  <path d="M111.5629111,213.7965049c-5.08387,1.6860339-15.0813964,1.4885346-20.7518828,1.0759536-1.5246059-.1109294-2.7534992-.2908096-4.2435236-1.0796321.7991638-4.8789139.3268894-9.7331417.7945125-14.6844354.1289044-1.3648677.6922929-2.5402124.713229-4.0922767.0905713-6.7143583.210161-13.1956998.7494605-19.9343439.33585-4.1965048,3.7996488-7.7480464,7.7442288-8.8298208,5.7751759-1.583803,12.3387377,2.558409,12.6547125,8.651509l1.1570167,22.3113326.4259654,1.5879337.2783686,10.9548486c.0342078,1.3462037.8478008,2.5351723.4779123,4.0389314Z"/>
</svg>