<?xml version="1.0" encoding="UTF-8"?>
<svg id="Layer_1" xmlns="http://www.w3.org/2000/svg" version="1.1" viewBox="0 0 400 600">
  <!-- Generator: Adobe Illustrator 30.1.0, SVG Export Plug-In . SVG Version: 2.1.1 Build 136)  -->
  <path d="M197.4633227,330.020395c-.7195843.5157764.6331571.6445646.6248071,1.2537736-.0058332.4255859-.3039831.5145322-.6861835.9578876-.2420572.2807882.6267376.4858724.661021.7961434.0746245.6753649-.4848651.7780268-.5388549,1.4026803-.0162491.1880003.536682.430663.50306.6155967-.5462486,3.729979,1.3666012,2.7407021,2.5386825,5.2268415.3263894.692315.3601607,1.6203864-.0373955,2.3019616-.3024477.51852-1.1796152,1.1758953-2.0619551,1.1920594-5.9091103.1082524-11.7769953.1606819-17.7160275-.0471311-.8597592-.2366479-1.0008913-1.5163742-.9727725-2.1542011.0877416-1.9902682,2.9822341-2.7422881,3.5026603-4.4662566.2000424-.6626624.047575-1.4105042.8057116-1.8840529l-.7747063-1.0496448c.332852-.2985156.6862415-.5046331.7336544-.7535249.0899618-.4722507-.2684622-.6790388-.5376301-.9552628-.4377537-.4492292.681281-.8169476.5930862-1.3959166-.0366761-.2407661-.5358405-.4604431-.6543207-.7212409-.2081285-.458131.6863739-.4021057.5965701-1.336761-.0262815-.2735309-.7910389-.597001-.5947574-.8327741l.6213772-.7463977c.2588283-.3109043-.6190946-1.0805917-.6471059-1.2694773-.0441109-.2974486.6892893-.4246968.6399036-1.0483385-.0414177-.5230222-.6837985-.6921741-.6449779-1.0506106.0253448-.2340132.6786257-.4614934.7077185-.8645479.0314289-.4354199-.6354465-.8003361-.6893145-1.0867438-.0567851-.3019172.7023335-.5391091.686395-1.0467264-.0127022-.4045445-.7468816-.6004524-.7292828-1.0487173.0140833-.3587206.8563193-.5177513.7573974-1.0558753-.0693204-.3770953-.7049407-.576709-.7715188-.8870533-.0909446-.4239249.7065692-.3546087.6863078-1.0521133-.0177635-.6115164-.702751-.6072783-.6486876-1.0639538.0247466-.209036,1.3593794-1.0409556.6209691-1.2158795l-3.5177856-.8333376c-.6282411-.1488257-1.6205444-.3180329-1.8895833-1.0179738-1.2048466-3.1345698-.0027831-3.4615861-.4918818-5.7270638-.1624246-.7523415.0824135-1.456311.8923737-1.6455217.3631661-.0848374,1.1187359.1267981,1.4085747-.2243695.4378044-.530442.2120267-1.3811526.2864724-2.0924338.7600709-.8780384,3.4088896-1.2291918,3.2682066-2.6691068-.0408053-.4176494-.6567607-.5636343-.5922191-.9940004.3126816-.2484011.5514718-.5234851.6396604-.8315955.128518-.4490119-.5176603-.6429524-.5946831-1.0400716-.0343498-.3294914.5627543-.6289639.5890929-.8971619.0474599-.4832697-.2602926-.8351427-.7410608-1.1326024.2929849-.4054091.5361001-.4583169.6338703-.6600679.3648477-.7528711-.4197606-1.09739-.499388-1.4089606-.1147089-.448839.8895025-.3748772.547628-1.4048145-.0664426-.2001661-.4220199-.3388107-.5688564-.641444.22685-.3473208.5685697-.5877364.6517946-.9048899.1471294-.560681-.8125589-.8808556-.605453-1.1921597l.6242569-.9383303c.2105133-.3164258-.5811079-.6901634-.6225405-1.1534341.0471041-.2975955.815959-.676001.6250252-.9785077l-.6280722-.9950885c-.1506543-.2386897.5661578-.6321977.6213007-.9129593.1146322-.5836535-.8610786-.8925884-.6446802-1.1772965l.5945017-.782166c.3689443-.4854076-1.0661143-1.1585419-.4711764-1.5191497.3790772-.2297689.4572325-.546387.479299-.9976739.012106-.2475815-.5795987-.4228153-.5814518-.7799849-.00191-.3681545.5757087-.5844427.607482-.9264456.0501335-.5396309-.479221-.7215792-.6562505-1.181457.1476756-.3027705.6500161-.5945111.6557184-.952363.0074955-.4703812-.5470471-.6440076-.6208273-1.0600399-.0518536-.2923923.570478-.5913528.6149526-.8805387.0741747-.4823039-.4269046-.8211649-.6826746-1.1900736.116623-.3085168.6455886-.5921363.6945179-.9036179.0909548-.5790141-.5099972-.7456296-.6730923-1.1999401.0935177-.299342.6405527-.5953942.677153-.9360309.0584203-.5437137-.5573463-.7574432-.7266553-1.1179875.2379158-.4068702.6969731-.5744077.708822-1.014888.0126455-.470093-.5045608-.6436655-.6363704-1.0287474l.6409042-.8784226c.3221152-.4414907-.3682787-.818678-.7558077-1.1754092.4797847-.4502253,1.0905271-1.1064907.6091539-1.6725878-.1288998-.1515867-.6715055-.1570891-.6124161-.4821531.4918655-.3153379.6853789-.5876647.7254109-.9429821.0760774-.6752499-.2973037-.8535261-.9766555-1.0061864.2209335-.3699508.8724906-.3635054.8880832-.8115636l.1223201-3.5149013,1.4394065-.301825c-.3220216-.5126329-.1637153-.8593565-.0582403-1.3244708.2774702-1.2235627.1163664-2.4992311-.0378011-3.7462628-.3648885-.4328563-.9399992-.4190788-1.2032366-.9562169.6725934-.2721551,1.2693821-.5268309,1.2670131-1.1295838-.0056822-1.4457359-2.6894027-1.1939349-.4731572-1.9844034.8123186-.2897297.1726739-1.1317914.2465699-1.6078925.1076892-.693826.3233722-1.3700087.3611078-2.1657859.0149494-.3025087.7813129-.2731573,1.1313786-.3612761-.3961132-1.3119765-.0145869-5.4675601-.3905944-6.2348058-.1441327-.2941037-1.488109.4518138-.8408645-3.6858158.344463-2.2020428,4.7957084-.4626644,2.8637154-2.6626509.1988801-.194597.5698433-.3688236.5340919-.661994-.0349998-.2870071-.4951816-.4006499-.7120237-.6580391.2937764-.2275217.7243798-.2567258.7207864-.6171082-.0029214-.2929877-.4688984-.4201711-.7258372-.6569379.3186223-.246377.7388205-.3336116.7419104-.6285267.0037739-.3602058-.3809614-.4393536-.743465-.6099568.1795822-.2189818.3991614-.2720724.5233971-.3637637.3499409-.2582717-.1754931-.4733248-.2245509-.746801-.2757426-1.5371458,2.7197971-1.5764129,3.5819133-1.147176.4373685.2177604.7933309.470261.8540851.93359.0550824.4200736.0525117.8742016-.473044,1.2301036.1070141.3400183.3794369.4570098.520765.7169241-.1935708.2392289-.449601.4121963-.4954589.6291408-.0569379.2693621.4600275.3878008.4888195.6440394.0248532.2211838-.6218038.5334555-.514696.6633127l.5259262.6376317-.5338478.6279953c-.1603591.1886394.3955459.3876446.5051782.6177734.0891721.1871808-.0457845.3828556-.0552743.4931013-.0404368.469766,3.0512923-.0881538,2.9665488,2.0636813l-.1139361,2.8931034c-.6748791.0519756-.9229364.4432141-.9010182,1.0464024.0661595,1.8207094.0916005,3.6617343-.0559147,5.4131569,2.2299178.2247548.1635764,1.4189484,1.9204103,3.1319628.5953788.5805286-.5551078.6479095-.6434868,1.5858317-.0926487.9832346,1.1202385.7959982,1.1136038,1.2645526-.0066312.468316-.8909233.4959004-1.0624872,1.1179354-.1235896.4480955.0069511.8480608.3408764,1.2170451-.7515213.7945735-.4632693,3.6622095-.2521784,4.6624791.0865746.4102403.9441928.3772694,1.1592921.6022245.5605376.830115-.4637887,3.1900431.8425861,3.4771012-.4590441.2374071-.7843243.3678102-.780658.6346574.0139192,1.0130924.8116183,1.0430284.8298395,1.276111.027724.3546408-.7783947.5041281-.8568295.8834373-.1436651.694762.8121071.9774134.7886744,1.2455335-.0359593.411449-.8761244.5330596-.7745277.9800129.1659684.7301431.7265038.8077198.791605.9892132.1304871.3637806-.7697552.6674001-.7836697,1.0133348-.0226354.5627492.7106252.9445322.7318129,1.0838409.0559839.3680933-.750523.5531667-.744165,1.0257793.0092161.6850547.9385444.682772.8156929,1.0964076-.1244945.4191675-.7696647.5234795-.8323298.8719855-.1142661.6354804.7889878.8663396.8048546,1.0396829.0412061.4501744-.7356094.6756417-.8283804,1.0897738-.13577.6060808.8119789.778256.8318005,1.0369742.0364573.4758513-.7280876.5150803-.8242461,1.0621295-.1151986.6553694.7929523.6079914.7668166,1.0719512-.0287562.5104787-.7242881.4537378-.7749984,1.0594388-.0618643.7389287,1.0236011.5997888.7978585,1.0580204-.1996636.4052941-.7800615.4300576-.8218747,1.075317-.0252787.3900988.4120799.4353515.7058618.6913375.4288921.3737139-.6306565.8744195-.6883674,1.2532437-.0733982.4817985.7659184.6817794.7158839,1.0148866-.0694428.4623192-.6299555.6474278-.706511,1.0924348-.060713.3529168.2581812.4548484.5669261.6486573.5852196.3673607-.6125232,1.075367-.5947978,1.4788698.0233612.531797.8572492.3761435.7555501.8297664-.1341239.5982519-.7123858.7307105-.7515906,1.0872902-.0488671.4444622.7002973.6573573.7212387.8799391.042116.4476418-.7024027.7594198-.7349672,1.2373887-.0265044.3890222.3846107.5150455.648361.7816026.4467135.4514674-1.2914061,1.074327-.4292828,1.7007097.2293839.1666608.4344018.3088872.4348477.5099526.0012546.5656242-.647702.7492718-.6415082,1.0474868.0111585.5372508.681745.6277714.7495213.9006816.1086651.4375543-.6005617.693633-.713254,1.0706992-.1183721.3960712.7076576.764975.7076971,1.0244802.0000784.5154303-.8671619.8361148-.7242975,1.2332361.098717.2744044.4396153.4826747.7243586.6797887-.0040359.5505806-.6648801.8485866-.7300771,1.360575.1225021.3067837.6287687.4932684.6256472.7860207-.0037204.3489242-.2424212.6177691-.4728913,1.0561637.7800057.2037547,2.2727464.2976374,2.7130603,1.1990197.4989979,1.0215165.2576411,2.3762082.6828076,3.5062534.7628449.1992722,1.5371606-.3082061,1.8795015-1.0031219.8268444,1.6523782.0916196,3.1609155.4180143,6.1730382.1046607.9658578-.3818029,1.6361206-1.2296977,1.8717262l-3.699916,1.0281004c-.305593.5155298-.5095667,1.4382683-1.4223701,1.6349974.3786304.4249623,1.0677499.3686714,1.1659939.8658583.0902228.4565937-.5102321.7748063-.8488617,1.0732376l.9771235.9949802c-.2033287.5361322-.6747328.7528296-.9997577,1.1507888l.8582651.7404213c.4980408.4296575-1.0096993,1.0346532-.8675971,1.5807742.0513882.1974929.6328786-.0333149.8985527.4015083.0725325.1187124.0417886.3793914-.1117465.539106l-.7696783.8006561.9326278.7877399c-.1082522.5778135-.5831909.8998819-.9766464,1.3296457.2505188.2815973.8133007.2949242.9231797.6334882.1718849.5296193-.6554515.8995106-.5912417,1.3506954.0431046.3028841.6077639.5003872.5518362.8256758-.0589391.3428031-.1766609.6087805-.5181665.8535614ZM190.2203559,303.6409086c-1.4260167-.1463985-5.7785623-.6226846-6.4931824.207668.4459947.4871159,6.9039489.9434516,6.4931824-.207668Z"/>
  <path d="M221.870696,343.0570785c-2.9312403.9721277-8.6955799.8582542-11.9650495.6203696-.879052-.0639593-1.5876031-.167674-2.4467163-.6224906.4607791-2.8130675.1884767-5.6119015.4580973-8.4667015.0743233-.7869507.3991599-1.4646269.4112311-2.3595109.0522213-3.8713417.1211739-7.6083314.4321214-11.4936758.1936432-2.4196064,2.1907885-4.467342,4.4651409-5.0910678,3.3298311-.9131837,7.1142271,1.4751187,7.2964108,4.9882575l.6671087,12.8641918.2456017.9155654.1605008,6.3163091c.0197234.7761895.4888221,1.461721.2755531,2.3287532Z"/>
</svg>