<?xml version="1.0" encoding="UTF-8"?>
<svg id="Layer_1" xmlns="http://www.w3.org/2000/svg" version="1.1" viewBox="0 0 153.515152 262.836954">
  <!-- Generator: Adobe Illustrator 30.1.0, SVG Export Plug-In . SVG Version: 2.1.1 Build 136)  -->
  <path d="M58.817764,221.041625c-.501059.068672-.68426.556192-.899401.717732-.260823.195841-.626866-.628989-.855632-.537355-2.308205.924568-4.926324.714692-7.192449-.11588-.25684-.094136-.897006.915925-1.065177.78355l-1.007129-.792762c-.848123-.6676-27.462154,1.168021-21.840742-9.280304.833088-1.548431,6.980707-1.119505,7.115469-7.975109l.452315-23.010232.260619-38.299059.030015-36.74995-.286275-9.413389c.346618-.638558,1.300786-.988884,1.497009-1.673647.648437-2.752669.260343-5.579834.021498-8.376688-.080082-.937747,1.231606-1.543141,1.49713-2.194966-.52004-.522114-1.664919-.797875-1.776891-1.563402-.170154-1.163302.757799-1.609686,1.464811-2.219265-.347489-.689338-1.607449-1.409208-1.577524-2.422797.28729-.730271,1.358836-1.008132,1.552569-1.714527.236876-.863704-1.280043-1.086232-1.518554-1.677679-.4373-1.084392.849201-1.917678,1.711773-2.511354-.983196-.689891-2.176696-1.321694-1.721353-2.566504.316614-.865555,1.631201-.929064,2.459233-1.488775-1.298782-.255033-3.136882-1.390736-2.367087-2.900293.221151-.433673,1.093889-.519772,1.18509-.934689.34815-1.583904-1.848475-1.220842-1.275381-2.809796.330185-.915467,1.53498-1.240138,1.643989-1.399058.455724-.664381-1.628772-.977615-1.794111-1.93161-.27953-1.612868,1.22631-1.612414,1.423816-2.266874.191877-.635803-2.449013-1.733182-.964681-3.039576.503172-.442853.930447-.82455.801831-1.501403-.08107-.426637-.692525-.830415-.967313-1.295837-.585842-.992267.818875-1.66403,1.011559-2.457979.376352-1.550741.907733-2.729204,1.867823-3.618806,1.31353-1.217092,2.962841-.163902,4.05477-.469452,3.901311-1.091689,6.826894-.082036,12.37274-.615726,2.944702-.283375,9.758387.125431,11.914767,1.37691.802529.465757.391943,1.558947.864013,2.381862.025297.044098,1.974215,1.614859.727237,2.424774-.367821.238901-.89383.344807-1.022813.817297-.184124.674481,1.600799.933603,1.755048,1.864617.259369,1.565488-1.796632,1.273175-1.714043,2.236183.082019.95637,1.477255,1.356971,1.736234,1.977197.373018.893336-1.527745.988215-1.668224,2.244688-.112882,1.009641,1.959744,1.063463,1.752381,2.293157-.182658,1.08319-1.542581.973161-1.855881,1.541098-.402923.730402,2.599211,2.038623,1.704502,2.776564l-1.887985,1.557179c.696269.932882,1.7047,1.295866,2.073311,2.271823-.487174.722323-1.719929.854107-1.951786,1.637027-.327741,1.106693,1.174093,1.28908,1.697921,1.84855.901832.963194-1.663113,1.868658-1.686352,2.555102-.028823.851388,1.560886.748109,1.792725,1.957955.2177,1.136064-1.554271.862615-1.831278,1.868695-.280091,1.01728,2.109475,1.767831,1.641885,2.537764-.329714.542908-.954521.730952-1.125061,1.085228-1.010753,2.099713,2.02593,2.216999.584231,3.766994-.837625.900546.040885,1.674281.165516,2.571298.289315,2.082309-.646808,4.605207.39815,6.614535.581869,1.118863,1.273176,1.716506,1.267673,3.22427l-.129323,35.430096.953083,60.235888.40812,9.201942c.160976,3.629543,2.079733,5.765261,4.934916,7.625377,1.338524.872031,1.727099,4.326837.62175,5.389311-3.948155,3.79501-12.159559,4.287044-17.435075,5.010078Z"/>
  <path d="M101.050849,219.584196c-5.741925-.059871-8.19281-.234399-13.576094-2.304348.052863-1.919421-.214685-3.815853.151028-5.69551.208761-1.072971.572761-1.942054.5848-3.172583l.247091-25.256643.191539-12.565857,2.186697.336591c.622665-.197949.453911-1.0977-.341845-.509057-.321723-.16881-.159864-.643103.057874-.678775.197809-.032406.68488.038011.905523-.148907.495088-.860289.061371-1.748353.189919-2.763101,1.354384.338979,1.86495-.481681,2.608756-1.222367,1.166526-1.161632,2.694872-1.833671,3.979246-2.917044,1.798313-1.516883,4.304131-1.592,6.404536-2.719774,3.058779-1.642356,10.151072,1.059624,12.13125,2.545704,2.376431,1.783459,4.057225,3.334854,6.007988,4.565645.72273.763239-.230847,2.65414.853693,3.581335.653052.403285,1.444205-.096603,2.413196.009067l.635528,38.884648c.043262,2.646963,1.249071,4.958979.687704,7.604927l-2.726089,1.159456c-.314304.13368-.886744.186672-1.437122.252749-7.422017.891068-14.691175,1.091672-22.155221,1.013845Z"/>
</svg>