<?xml version="1.0" encoding="UTF-8"?>
<svg id="Layer_1" xmlns="http://www.w3.org/2000/svg" version="1.1" viewBox="0 0 220.6666667 331">
  <!-- Generator: Adobe Illustrator 30.1.0, SVG Export Plug-In . SVG Version: 2.1.1 Build 136)  -->
  <path d="M57.4642457,278.027992c-6.0069898-.3005179-11.6079438-1.1782033-16.8702661-3.1512455-2.6631795-.998526-3.6899555-2.7323702-3.623232-5.2958926.1755012-6.7427655,10.5474217-2.060482,11.1052954-12.9211947l.3777261-7.3535902.5974447-60.3948827.0781485-55.6101082-.3635178-11.8590973,2.2381429-2.2760086c.7149184-3.4575568.3560086-7.0077134-.1748436-10.5852713l2.4197639-2.6901121c-1.2680231-.387671-2.5530668-1.0466372-2.6678909-2.0936148-.1229307-1.120894,1.0791743-1.9232815,2.1739245-2.5989615-.407927-.9664512-1.9980197-1.2325762-2.3057858-2.286425-.3948618-1.3520811,1.4949648-2.058626,2.2145417-2.9990315-.3940691-1.0351034-2.2088016-1.3107717-2.4130527-2.3711618-.2732885-1.418805,1.6199624-1.8974953,2.6544095-2.7450501-1.1374984-.7960988-2.9474639-1.550261-2.4698609-3.0855553.3831679-1.2317249,2.3371219-1.2864264,3.5034615-2.076451-.8533832-.669878-4.2557675-.872386-3.6916858-3.1955478.2108899-.8685468,1.7114915-1.0722872,2.04667-1.84918.4392813-1.0181873-1.8667282-1.2815216-2.004232-2.7033987-.1529391-1.5814867,2.3060856-2.1106769,2.3471175-2.7286758.0342112-.5152693-2.2837283-1.158097-2.4462646-2.2563248-.2343177-1.5832419,1.6035507-1.8392687,2.0398016-2.8306716.3206528-.7287001-1.7516063-1.3486362-1.9368302-2.170431-.3118406-1.3835634,1.1358293-1.6829662,1.5572537-2.6596073.5582717-1.2937816-.9890168-1.1426782-1.4679722-3.1752008-.2164712-.9186296,1.276236-1.3013643,1.4462259-1.8546683.94393-3.07242,2.1465757-4.9051299,5.2412669-5.8809378,1.4170077-.4468062,2.5216884.05503,3.6113767.3427406,1.3688318-1.2177681,10.1549496-1.0185547,10.8313939-.9217909,3.1304166.447799,5.7247885-.1561946,8.6703321-.2979422,5.2996104-.2550317,10.9543193.2500649,15.6637071,2.5343511.8323247,4.1386702,2.9453936,3.3950272,2.3258607,5.2075007-.1849284.5410169-1.6643057.706215-1.887972,1.3722356-.4173962,1.2428982,3.7193666,1.7629758,2.2008573,3.5410458-.475233.5564651-2.3697075,1.0501483-1.9982831,1.9221721.535253,1.2566577,2.227782,1.5295474,2.5230176,2.9171078-.7881006.681373-2.5403504,1.1208211-2.370369,2.2977662.1950567,1.3505657,2.0177676,1.5072446,2.5198685,2.7368048l-3.1434269,2.1820255c.8177836,1.3892048,2.1695998,1.6391937,3.2093331,2.7924086l-3.2567218,2.6879829,3.1194234,2.3904733c-.6780056,1.2685806-2.1389536,1.4840609-3.0961467,2.6125325.8477974,1.4273906,2.1183728,1.66719,3.1826366,2.6946323-.9640752,1.2146063-2.3507706,1.1629483-2.8666355,2.3754396-.5736822,1.3483855,2.6352858,1.5589888,2.5084776,2.9429451-.0770492.8408974-2.3205281,1.0651248-2.6493363,2.1925505-.3738468,1.2818554,1.502808,1.1159134,2.4166001,2.530321.6263901.9695542-1.6980869,1.2072448-1.9875746,2.9631479-.1349424.8185002.9678583,1.5851154,1.758948,2.2871082-1.2684697,1.6517264-1.0101508,3.1204863-.4678627,4.9202627.7083235,2.3508242-.8801507,5.5183008.6130776,7.8601186.8801183,1.3802823,1.8675318,2.2177754,1.8609918,4.1050019l-.1536654,44.3421859,1.3705062,76.0490838.6280969,12.082481c.2263478,4.3541745,2.7985653,7.0773651,6.4665542,8.8425458,2.2094215,1.0632606,3.0996621,5.0953776,1.6651823,6.961685-1.2902261,1.6786284-3.5530917,2.491476-5.5505167,3.1123459-10.7088688,3.3286927-21.7498579,4.3984267-32.9123711,3.8399882l-14.4111198-.72096Z"/>
  <path d="M181.5652103,274.5359808c-13.2364493,1.7970755-43.5299116,4.0297815-55.3564755-.9291616.2858833-2.5713005-.2916554-4.9828978.3528509-7.2309098.360241-1.2565061.8029245-2.2204832.8156861-3.6730885l.2517075-28.6509696.2872017-18.9466203c1.7559301-.3686923,3.8186035-.6579092,4.3880902-2.4471733.2182914-.6858475-.1239507-1.6274779.0517634-2.2998812.1422173-.5442212,1.4000809.0704659,1.948944-.356597,13.0965002-10.1902092,25.8497403-12.5527416,39.4095519-1.6016246,1.0954411.8846955,2.2667931,1.3823414,3.5971905,1.84897.1708185,1.6995095-.2167877,3.7334822,1.2475081,4.9167852.7281359.4480316,1.9928856-.3527757,3.1280147-.0934412l.9475789,49.2617346c-.0216975-1.1279878,1.8402892,7.9763812,1.276321,8.7353796-.3437948.4626851-1.0073264,1.2848588-2.3459334,1.4665977Z"/>
</svg>